<svg width="129" height="80" viewBox="0 0 129 80" fill="none" xmlns="http://www.w3.org/2000/svg">
<path d="M39.9053 0.189453C61.914 0.189473 79.8241 18.0858 79.8105 40.0811H72.2891C72.2891 22.2252 57.7612 7.69631 39.9053 7.69629C33.2769 7.69629 27.1081 9.69886 21.9678 13.1348L40.7979 31.9648L35.4814 37.2803H35.4688L16.2188 18.0312C10.8214 23.8209 7.50781 31.5726 7.50781 40.0947C7.50804 57.9504 22.0495 72.4785 39.9053 72.4785V80C17.9102 80 0.000225876 62.1033 0 40.0947C0 18.086 17.8965 0.189453 39.9053 0.189453ZM88.4678 0.189453C110.477 0.189453 128.36 18.0995 128.36 40.0947C128.36 62.0896 110.45 79.9998 88.4551 80C66.46 80 48.55 62.1033 48.5498 40.0947H56.0703C56.0705 57.9503 70.5987 72.4783 88.4678 72.4785C106.337 72.4785 120.866 57.9504 120.866 40.0947C120.866 22.2388 106.324 7.70996 88.4678 7.70996V0.189453ZM79.959 0C82.1403 0.000259097 83.9082 1.76886 83.9082 3.9502C83.9081 6.13141 82.1402 7.89915 79.959 7.89941C77.7776 7.89941 76.0089 6.13157 76.0088 3.9502C76.0088 1.7687 77.7775 0 79.959 0Z" fill="#DFAF9C"/>
</svg>
