<svg width="35" height="35" viewBox="0 0 35 35" fill="none" xmlns="http://www.w3.org/2000/svg">
<path d="M4.46851 34.4005H3.3573C1.50527 34.4005 0 32.8952 0 31.0432V3.3573C0.00788097 1.50527 1.51315 0 3.36518 0H13.0982C13.4055 0 13.6577 0.252191 13.6577 0.559549C13.6577 0.866907 13.4055 1.1191 13.0982 1.1191H3.36518C2.13574 1.1191 1.12698 2.11998 1.12698 3.3573V31.051C1.12698 32.2805 2.12786 33.2892 3.36518 33.2892H4.47639C5.32754 33.2892 6.11564 32.7927 6.48604 32.0362L9.26803 28.3242C7.95978 27.8671 7.02195 26.6219 7.02195 25.1561V17.1411C7.02195 16.8338 7.27414 16.5816 7.5815 16.5816C7.88886 16.5816 8.14105 16.8338 8.14105 17.1411V25.1561C8.14105 26.3855 9.14193 27.3943 10.3792 27.3943H19.3399C19.6473 27.3943 19.8995 27.6465 19.8995 27.9538C19.8995 28.2612 19.6473 28.5134 19.3399 28.5134H10.4186L7.49481 32.5248C6.93526 33.6675 5.75311 34.4083 4.47639 34.4083L4.46851 34.4005Z" fill="#776156"/>
<path d="M30.7831 34.4005H22.1219C20.8924 34.4005 19.7655 33.7306 19.1744 32.6509L15.6752 28.2139C15.5255 27.9459 15.628 27.6071 15.8959 27.4573C16.1639 27.3076 16.5027 27.41 16.6525 27.678L20.1516 32.115C20.5457 32.8321 21.2944 33.2814 22.114 33.2814H30.7752C32.0046 33.2814 33.0134 32.2805 33.0134 31.0432V3.3573C33.0134 2.12786 32.0125 1.1191 30.7752 1.1191H17.4721V5.72159C17.4721 6.01318 17.3145 6.28114 17.0702 6.43088L9.44139 10.9703H24.699L18.3548 7.19533C18.0868 7.03771 18.0001 6.69095 18.1578 6.43088C18.3154 6.16292 18.6621 6.07623 18.9222 6.23385L26.1412 10.529C26.4722 10.726 26.6219 11.1043 26.5195 11.4747C26.417 11.8451 26.0939 12.0894 25.7077 12.0894H8.42475C8.03858 12.0894 7.71546 11.8451 7.613 11.4747C7.51055 11.1043 7.66817 10.726 7.99129 10.529L16.353 5.55609V0.827502C16.353 0.370406 16.7234 0 17.1805 0H30.7752C32.6272 0 34.1325 1.50527 34.1325 3.3573V31.051C34.1325 32.9031 32.6272 34.4083 30.7752 34.4083L30.7831 34.4005Z" fill="#776156"/>
<path d="M33.1553 22.3032H22.2795C21.9722 22.3032 21.72 22.051 21.72 21.7436C21.72 21.4363 21.9722 21.1841 22.2795 21.1841H33.1553C33.4626 21.1841 33.7148 21.4363 33.7148 21.7436C33.7148 22.051 33.4626 22.3032 33.1553 22.3032Z" fill="#776156"/>
<path d="M33.108 28.2376H22.2322C21.9249 28.2376 21.6727 27.9854 21.6727 27.6781C21.6727 27.3707 21.9249 27.1185 22.2322 27.1185H33.108C33.4153 27.1185 33.6675 27.3707 33.6675 27.6781C33.6675 27.9854 33.4153 28.2376 33.108 28.2376Z" fill="#776156"/>
<path d="M28.4188 25.2744H26.9214C26.7638 25.2744 26.6298 25.0222 26.6298 24.7148C26.6298 24.4075 26.7559 24.1553 26.9214 24.1553H28.4188C28.5764 24.1553 28.7104 24.4075 28.7104 24.7148C28.7104 25.0222 28.5843 25.2744 28.4188 25.2744Z" fill="#F15632"/>
<path d="M25.755 15.1235H24.6359V21.3259H25.755V15.1235Z" fill="#776156"/>
<path d="M27.5834 15.1235H26.4643V21.3259H27.5834V15.1235Z" fill="#776156"/>
<path d="M28.6814 15.2684L27.7059 15.8168L30.7256 21.1892L31.7012 20.6408L28.6814 15.2684Z" fill="#776156"/>
</svg>
