<svg width="107" height="121" viewBox="0 0 107 121" fill="none" xmlns="http://www.w3.org/2000/svg">
<g clip-path="url(#clip0_3_159)">
<path d="M4.42881 95.2031H19.1915V97.8657H4.13355C1.65342 97.8657 0 96.209 0 93.7239V70.8846H3.24779V94.0198C3.24779 94.7298 3.7202 95.2031 4.42881 95.2031Z" fill="#F15632"/>
<path d="M25.0037 70.2928C26.2438 70.2928 27.1886 71.2395 27.1886 72.5413C27.1886 73.843 26.2438 74.7305 25.0037 74.7305C23.7636 74.7305 22.7598 73.7838 22.7598 72.5413C22.7598 71.2987 23.7046 70.2928 25.0037 70.2928Z" fill="#F15632"/>
<path d="M26.5981 78.5173H23.3503V97.8656H26.5981V78.5173Z" fill="#F15632"/>
<path d="M35.3376 83.6398H49.8979V86.3024H35.3376V97.8742H32.0898V75.0349C32.0898 72.5498 33.7433 70.8931 36.2234 70.8931H50.1594V73.5557H36.5187C35.81 73.5557 35.3376 74.029 35.3376 74.7391V83.6482V83.6398Z" fill="#F15632"/>
<path d="M54.2339 84.3751C54.2339 76.4126 59.7003 70.2928 67.6131 70.2928C75.5259 70.2928 80.9923 76.4211 80.9923 84.3751C80.9923 92.3291 75.5259 98.4573 67.6131 98.4573C59.7003 98.4573 54.2339 92.3291 54.2339 84.3751ZM67.6131 72.9554C61.2019 72.9554 57.4817 77.8665 57.4817 84.3751C57.4817 90.8837 61.2019 95.7947 67.6131 95.7947C74.0243 95.7947 77.7108 90.8837 77.7108 84.3751C77.7108 77.8665 74.0159 72.9554 67.6131 72.9554Z" fill="#F15632"/>
<path d="M85.7417 97.8657V81.087C85.7417 74.9334 89.909 70.2844 96.3708 70.2844C102.833 70.2844 107 74.9334 107 81.087V97.8657H103.752V89.4298H88.9895V97.8657H85.7417ZM103.752 86.7672V80.9687C103.752 76.5563 100.8 73.2429 96.3708 73.2429C91.942 73.2429 88.9895 76.5563 88.9895 80.9687V86.7672H103.752Z" fill="#F15632"/>
<path d="M7.2463 117.239H12.7296V118.228H7.13664C6.21713 118.228 5.60132 117.611 5.60132 116.69V108.203H6.80764V116.8C6.80764 117.062 6.98479 117.239 7.2463 117.239Z" fill="#F15632"/>
<path d="M14.8891 107.984C15.3531 107.984 15.6989 108.339 15.6989 108.82C15.6989 109.302 15.3446 109.632 14.8891 109.632C14.4336 109.632 14.054 109.277 14.054 108.82C14.054 108.364 14.4083 107.984 14.8891 107.984ZM14.2733 118.228V111.044H15.4796V118.228H14.2733Z" fill="#F15632"/>
<path d="M22.8441 111.965V111.086H23.966V117.611C23.966 119.31 22.591 120.544 20.5917 120.544C18.5924 120.544 17.2174 119.42 17.2174 118.102H18.3815C18.3815 118.905 19.2504 119.598 20.6002 119.598C21.9499 119.598 22.8188 118.778 22.8188 117.611V116.521C22.3126 117.146 21.545 117.569 20.4736 117.569C18.3225 117.569 17.1499 116.022 17.1499 114.222C17.1499 112.421 18.3225 110.866 20.4736 110.866C21.5703 110.866 22.3632 111.314 22.861 111.965H22.8441ZM22.8019 114.213C22.8019 112.979 22.1017 111.804 20.5495 111.804C19.1323 111.804 18.2887 112.979 18.2887 114.213C18.2887 115.447 19.1323 116.622 20.5495 116.622C22.0933 116.622 22.8019 115.447 22.8019 114.213Z" fill="#F15632"/>
<path d="M25.7883 118.228V108.203H26.9947V111.88C27.5092 111.246 28.3866 110.858 29.1795 110.858C31.0692 110.858 32.1321 112.218 32.1321 113.934V118.22H30.9511V113.934C30.9511 112.869 30.2171 111.804 28.9686 111.804C27.8382 111.804 27.1381 112.675 27.0031 113.622V118.228H25.7968H25.7883Z" fill="#F15632"/>
<path d="M35.599 111.982V116.859C35.599 117.121 35.7762 117.299 36.0377 117.299H36.9066V118.22H36.0799C35.0929 118.22 34.4349 117.561 34.4349 116.572V111.982H33.2876V111.035H34.4349V109.243H35.599V111.035H36.9066V111.982H35.599Z" fill="#F15632"/>
<path d="M42.0188 112.937H47.4262V113.926H42.0188V118.22H40.8125V109.733C40.8125 108.812 41.4283 108.195 42.3478 108.195H47.5274V109.184H42.4575C42.196 109.184 42.0188 109.361 42.0188 109.623V112.928V112.937Z" fill="#F15632"/>
<path d="M52.4117 110.866C54.4701 110.866 55.8957 112.557 55.8957 114.661C55.8957 116.766 54.4701 118.457 52.4117 118.457C50.3534 118.457 48.9277 116.766 48.9277 114.661C48.9277 112.557 50.3534 110.866 52.4117 110.866ZM54.74 114.653C54.74 113.106 53.8289 111.914 52.4117 111.914C50.9945 111.914 50.0834 113.098 50.0834 114.653C50.0834 116.208 50.9945 117.392 52.4117 117.392C53.8289 117.392 54.74 116.208 54.74 114.653Z" fill="#F15632"/>
<path d="M61.7587 112.033H60.2234C59.2617 112.033 58.6121 112.666 58.6121 113.639V118.228H57.448V113.715C57.448 112.134 58.494 111.086 60.0715 111.086H61.7587V112.033Z" fill="#F15632"/>
<path d="M65.7151 118.228V111.999C65.7151 109.716 67.2588 107.984 69.6631 107.984C72.0673 107.984 73.611 109.708 73.611 111.999V118.228H72.4047V115.101H66.9214V118.228H65.7151ZM72.4047 114.103V111.948C72.4047 110.308 71.308 109.082 69.6631 109.082C68.0181 109.082 66.9214 110.317 66.9214 111.948V114.103H72.4047Z" fill="#F15632"/>
<path d="M77.736 117.307V118.228H77.1877C76.2007 118.228 75.5427 117.569 75.5427 116.58V108.203H76.7069V116.859C76.7069 117.121 76.884 117.299 77.1455 117.299H77.736V117.307Z" fill="#F15632"/>
<path d="M82.224 110.866C84.2823 110.866 85.708 112.557 85.708 114.661C85.708 116.766 84.2823 118.457 82.224 118.457C80.1656 118.457 78.74 116.766 78.74 114.661C78.74 112.557 80.1656 110.866 82.224 110.866ZM84.5438 114.653C84.5438 113.106 83.6328 111.914 82.2156 111.914C80.7983 111.914 79.8873 113.098 79.8873 114.653C79.8873 116.208 80.7983 117.392 82.2156 117.392C83.6328 117.392 84.5438 116.208 84.5438 114.653Z" fill="#F15632"/>
<path d="M88.441 118.228H87.26V113.943C87.26 112.227 88.4326 110.866 90.4319 110.866C92.4312 110.866 93.6037 112.227 93.6037 113.943V118.228H92.4227V113.943C92.4227 112.878 91.6888 111.813 90.4403 111.813C89.1918 111.813 88.4579 112.878 88.4579 113.943V118.228H88.441Z" fill="#F15632"/>
<path d="M96.3202 115.143C96.472 116.453 97.2481 117.4 98.5135 117.4C99.5258 117.4 100.293 116.808 100.513 116.056H101.753C101.576 117.417 100.083 118.448 98.4629 118.448C96.4045 118.448 95.1392 116.758 95.1392 114.653C95.1392 112.548 96.3877 110.858 98.4629 110.858C100.538 110.858 101.787 112.548 101.787 114.585C101.787 114.805 101.761 114.915 101.736 115.135H96.3286L96.3202 115.143ZM100.597 114.196C100.479 113.021 99.7873 111.923 98.4544 111.923C97.1216 111.923 96.4467 112.988 96.3117 114.196H100.589H100.597Z" fill="#F15632"/>
<path d="M32.6129 58.2563H30.7402C27.6105 58.2563 25.0713 55.712 25.0713 52.5761V5.68035C25.0713 2.54439 27.6105 0.00012207 30.7402 0.00012207H47.19C47.713 0.00012207 48.1348 0.422758 48.1348 0.946827C48.1348 1.4709 47.713 1.89353 47.19 1.89353H30.7402C28.6565 1.89353 26.9609 3.59253 26.9609 5.68035V52.5761C26.9609 54.6639 28.6565 56.3629 30.7402 56.3629H32.6129C34.047 56.3629 35.3799 55.5261 36.0126 54.2328L40.7113 47.9524C38.5011 47.1748 36.9152 45.0616 36.9152 42.5934V29.0183C36.9152 28.4943 37.337 28.0716 37.86 28.0716C38.383 28.0716 38.8048 28.4943 38.8048 29.0183V42.5934C38.8048 44.6812 40.5004 46.3802 42.5841 46.3802H57.7348C58.2578 46.3802 58.6796 46.8029 58.6796 47.3269C58.6796 47.851 58.2578 48.2736 57.7348 48.2736H42.66L37.7166 55.0612C36.7718 56.9968 34.7725 58.2563 32.6214 58.2563H32.6129Z" fill="#F15632"/>
<path d="M77.0865 58.2563H62.4504C60.3752 58.2563 58.4687 57.1236 57.4732 55.2894L51.5513 47.7749C51.2982 47.3185 51.4669 46.7437 51.9309 46.4901C52.3864 46.2365 52.9601 46.414 53.2132 46.8705L59.1351 54.385C59.8015 55.6021 61.0669 56.3629 62.4504 56.3629H77.0865C79.1702 56.3629 80.8658 54.6639 80.8658 52.5761V5.68035C80.8658 3.59253 79.1702 1.89353 77.0865 1.89353H54.5966V9.68694C54.5966 10.1772 54.3351 10.6421 53.9133 10.8872L41.015 18.5792H66.8033L56.0813 12.189C55.6342 11.9185 55.4824 11.3437 55.7523 10.8872C56.0223 10.4392 56.5959 10.2871 57.0515 10.5576L69.2497 17.8354C69.8064 18.165 70.0595 18.8074 69.8908 19.4329C69.7221 20.0584 69.1737 20.4726 68.5242 20.4726H39.3025C38.6529 20.4726 38.1046 20.05 37.9359 19.4329C37.7672 18.8074 38.0202 18.165 38.577 17.8354L52.707 9.408V1.40327C52.707 0.634076 53.3313 0.00012207 54.1074 0.00012207H77.0865C80.2162 0.00012207 82.7554 2.54439 82.7554 5.68035V52.5761C82.7554 55.712 80.2162 58.2563 77.0865 58.2563Z" fill="#F15632"/>
<path d="M81.0936 37.7752H62.7119C62.1889 37.7752 61.7671 37.3526 61.7671 36.8285C61.7671 36.3045 62.1889 35.8818 62.7119 35.8818H81.0936C81.6166 35.8818 82.0384 36.3045 82.0384 36.8285C82.0384 37.3526 81.6166 37.7752 81.0936 37.7752Z" fill="#F15632"/>
<path d="M81.0093 47.8171H62.6277C62.1046 47.8171 61.6829 47.3945 61.6829 46.8704C61.6829 46.3463 62.1046 45.9237 62.6277 45.9237H81.0093C81.5324 45.9237 81.9541 46.3463 81.9541 46.8704C81.9541 47.3945 81.5324 47.8171 81.0093 47.8171Z" fill="#F15632"/>
<path d="M73.0795 42.7962H70.5572C70.2872 42.7962 70.0679 42.3736 70.0679 41.8495C70.0679 41.3255 70.2872 40.9028 70.5572 40.9028H73.0795C73.3494 40.9028 73.5687 41.3255 73.5687 41.8495C73.5687 42.3736 73.3494 42.7962 73.0795 42.7962Z" fill="#F15632"/>
<path d="M68.5832 25.6204H66.6936V36.1186H68.5832V25.6204Z" fill="#F15632"/>
<path d="M71.6792 25.6204H69.7896V36.1186H71.6792V25.6204Z" fill="#F15632"/>
<path d="M73.5261 25.8547L71.8789 26.7825L76.9838 35.8825L78.631 34.9548L73.5261 25.8547Z" fill="#F15632"/>
</g>
<defs>
<clipPath id="clip0_3_159">
<rect width="107" height="120.544" fill="white"/>
</clipPath>
</defs>
</svg>
