<svg width="107" height="35" viewBox="0 0 107 35" fill="none" xmlns="http://www.w3.org/2000/svg">
<g clip-path="url(#clip0_3_19)">
<path d="M44.6379 18.6306H53.6143V20.2462H44.4567C42.9514 20.2462 41.9426 19.2374 41.9426 17.7321V3.86951H43.9208V17.9055C43.9208 18.339 44.2045 18.6227 44.6379 18.6227V18.6306Z" fill="#776156"/>
<path d="M57.153 3.51489C57.9095 3.51489 58.4848 4.0902 58.4848 4.8783C58.4848 5.6664 57.9095 6.21019 57.153 6.21019C56.3964 6.21019 55.7896 5.63487 55.7896 4.8783C55.7896 4.12173 56.3649 3.51489 57.153 3.51489Z" fill="#F15632"/>
<path d="M58.1222 8.50354H56.144V20.2462H58.1222V8.50354Z" fill="#776156"/>
<path d="M63.4342 11.6086H72.2845V13.2242H63.4342V20.2462H61.4561V6.38354C61.4561 4.87827 62.4648 3.86951 63.9701 3.86951H72.4421V5.48511H64.1513C63.7179 5.48511 63.4342 5.76882 63.4342 6.20228V11.6086Z" fill="#776156"/>
<path d="M74.9246 12.0579C74.9246 7.22683 78.2425 3.51489 83.0577 3.51489C87.873 3.51489 91.1909 7.23471 91.1909 12.0579C91.1909 16.881 87.873 20.6008 83.0577 20.6008C78.2425 20.6008 74.9246 16.8889 74.9246 12.0579ZM83.0577 5.13049C79.1645 5.13049 76.9027 8.1095 76.9027 12.0579C76.9027 16.0062 79.1645 18.9852 83.0577 18.9852C86.9509 18.9852 89.197 16.0062 89.197 12.0579C89.197 8.1095 86.9509 5.13049 83.0577 5.13049Z" fill="#776156"/>
<path d="M94.0753 20.2462V10.064C94.0753 6.3284 96.6051 3.51489 100.538 3.51489C104.47 3.51489 107 6.33628 107 10.064V20.2462H105.022V15.1315H96.0455V20.2462H94.0674H94.0753ZM105.022 13.5158V10.0009C105.022 7.32928 103.225 5.31175 100.538 5.31175C97.8503 5.31175 96.0534 7.3214 96.0534 10.0009V13.5158H105.03H105.022Z" fill="#776156"/>
<path d="M46.348 31.9968H49.6816V32.5958H46.2849C45.7254 32.5958 45.355 32.2254 45.355 31.6658V26.5195H46.0879V31.7367C46.0879 31.8944 46.1982 32.0047 46.3559 32.0047L46.348 31.9968Z" fill="#776156"/>
<path d="M50.9978 26.3855C51.2815 26.3855 51.4943 26.5983 51.4943 26.8899C51.4943 27.1815 51.2815 27.3864 50.9978 27.3864C50.7141 27.3864 50.4934 27.1736 50.4934 26.8899C50.4934 26.6062 50.7062 26.3855 50.9978 26.3855ZM50.6274 32.5957V28.2375H51.3603V32.5957H50.6274Z" fill="#776156"/>
<path d="M55.8366 28.7971V28.2612H56.5144V32.2253C56.5144 33.2577 55.679 34.0064 54.4574 34.0064C53.2359 34.0064 52.4005 33.3286 52.4005 32.5248H53.1098C53.1098 33.0134 53.6378 33.4311 54.4574 33.4311C55.277 33.4311 55.8051 32.9346 55.8051 32.2253V31.5633C55.4977 31.9416 55.0327 32.1938 54.3786 32.1938C53.0704 32.1938 52.3611 31.2559 52.3611 30.1605C52.3611 29.065 53.0783 28.1272 54.3786 28.1272C55.0485 28.1272 55.5292 28.403 55.8287 28.7971H55.8366ZM55.8129 30.1684C55.8129 29.4197 55.3874 28.7104 54.4495 28.7104C53.5905 28.7104 53.0782 29.4276 53.0782 30.1684C53.0782 30.9092 53.5905 31.6264 54.4495 31.6264C55.3874 31.6264 55.8129 30.9171 55.8129 30.1684Z" fill="#776156"/>
<path d="M57.6257 32.5957V26.5116H58.3587V28.7419C58.6739 28.3557 59.2019 28.1193 59.6827 28.1193C60.8333 28.1193 61.4795 28.9468 61.4795 29.9871V32.5878H60.7624V29.9871C60.7624 29.3409 60.3131 28.6946 59.5566 28.6946C58.8709 28.6946 58.4453 29.2227 58.3665 29.798V32.5878H57.6336L57.6257 32.5957Z" fill="#776156"/>
<path d="M63.5915 28.8128V31.776C63.5915 31.9337 63.7019 32.044 63.8595 32.044H64.3875V32.6035H63.891C63.2921 32.6035 62.8901 32.2016 62.8901 31.6027V28.8128H62.1887V28.2375H62.8901V27.1499H63.5994V28.2375H64.3954V28.8128H63.5994H63.5915Z" fill="#776156"/>
<path d="M67.4927 29.3882H70.7791V29.9872H67.4927V32.5958H66.7598V27.4495C66.7598 26.8899 67.1302 26.5195 67.6897 26.5195H70.8342V27.1185H67.7528C67.5952 27.1185 67.4848 27.2288 67.4848 27.3864V29.3961L67.4927 29.3882Z" fill="#776156"/>
<path d="M73.8131 28.135C75.0662 28.135 75.9331 29.1595 75.9331 30.4363C75.9331 31.713 75.0662 32.7375 73.8131 32.7375C72.56 32.7375 71.6931 31.713 71.6931 30.4363C71.6931 29.1595 72.56 28.135 73.8131 28.135ZM75.2238 30.4284C75.2238 29.4905 74.6721 28.7655 73.8131 28.7655C72.9541 28.7655 72.4024 29.4827 72.4024 30.4284C72.4024 31.3741 72.9541 32.0913 73.8131 32.0913C74.6721 32.0913 75.2238 31.3741 75.2238 30.4284Z" fill="#776156"/>
<path d="M79.4954 28.8365H78.5654C77.9822 28.8365 77.5882 29.2226 77.5882 29.8137V32.6036H76.8789V29.861C76.8789 28.8995 77.5094 28.269 78.4709 28.269H79.4954V28.8444V28.8365Z" fill="#776156"/>
<path d="M81.8992 32.5957V28.8128C81.8992 27.4257 82.837 26.3776 84.3029 26.3776C85.7687 26.3776 86.7066 27.4257 86.7066 28.8128V32.5957H85.9736V30.6963H82.64V32.5957H81.9071H81.8992ZM85.9658 30.0974V28.7891C85.9658 27.7961 85.2959 27.0474 84.295 27.0474C83.2941 27.0474 82.6242 27.7961 82.6242 28.7891V30.0974H85.9579H85.9658Z" fill="#776156"/>
<path d="M89.2047 32.0362V32.5957H88.8737C88.2747 32.5957 87.8728 32.1938 87.8728 31.5948V26.5116H88.5821V31.7682C88.5821 31.9258 88.6924 32.0362 88.85 32.0362H89.2126H89.2047Z" fill="#776156"/>
<path d="M91.9315 28.135C93.1846 28.135 94.0515 29.1595 94.0515 30.4363C94.0515 31.713 93.1846 32.7375 91.9315 32.7375C90.6784 32.7375 89.8115 31.713 89.8115 30.4363C89.8115 29.1595 90.6784 28.135 91.9315 28.135ZM93.3501 30.4284C93.3501 29.4905 92.7984 28.7655 91.9394 28.7655C91.0804 28.7655 90.5287 29.4827 90.5287 30.4284C90.5287 31.3741 91.0804 32.0913 91.9394 32.0913C92.7984 32.0913 93.3501 31.3741 93.3501 30.4284Z" fill="#776156"/>
<path d="M95.7145 32.5957H94.9973V29.995C94.9973 28.9547 95.7066 28.1272 96.9203 28.1272C98.1339 28.1272 98.8511 28.9547 98.8511 29.995V32.5957H98.1339V29.995C98.1339 29.3488 97.6847 28.7025 96.9282 28.7025C96.1716 28.7025 95.7224 29.3488 95.7224 29.995V32.5957H95.7145Z" fill="#776156"/>
<path d="M100.506 30.7279C100.601 31.5239 101.073 32.0913 101.838 32.0913C102.453 32.0913 102.918 31.7288 103.052 31.2796H103.808C103.698 32.1071 102.791 32.7297 101.806 32.7297C100.553 32.7297 99.7888 31.7052 99.7888 30.4284C99.7888 29.1517 100.545 28.1272 101.806 28.1272C103.067 28.1272 103.824 29.1517 103.824 30.389C103.824 30.523 103.808 30.5861 103.792 30.72H100.506V30.7279ZM103.107 30.1526C103.036 29.4433 102.61 28.7734 101.806 28.7734C101.002 28.7734 100.585 29.4197 100.506 30.1526H103.107Z" fill="#776156"/>
<path d="M4.4607 34.4005H3.34948C1.49745 34.4005 -0.0078125 32.8952 -0.0078125 31.0432V3.3573C6.84748e-05 1.50527 1.50534 0 3.35736 0H13.0904C13.3977 0 13.6499 0.252191 13.6499 0.559549C13.6499 0.866907 13.3977 1.1191 13.0904 1.1191H3.35736C2.12793 1.1191 1.11917 2.11998 1.11917 3.3573V31.051C1.11917 32.2805 2.12005 33.2892 3.35736 33.2892H4.46858C5.31973 33.2892 6.10782 32.7927 6.47823 32.0362L9.26021 28.3242C7.95197 27.8671 7.01414 26.6219 7.01414 25.1561V17.1411C7.01414 16.8338 7.26633 16.5816 7.57369 16.5816C7.88104 16.5816 8.13323 16.8338 8.13323 17.1411V25.1561C8.13323 26.3855 9.13412 27.3943 10.3714 27.3943H19.3321C19.6395 27.3943 19.8916 27.6465 19.8916 27.9538C19.8916 28.2612 19.6395 28.5134 19.3321 28.5134H10.4108L7.48699 32.5248C6.92745 33.6675 5.7453 34.4083 4.46858 34.4083L4.4607 34.4005Z" fill="#776156"/>
<path d="M30.7753 34.4005H22.1141C20.8847 34.4005 19.7577 33.7306 19.1666 32.6509L15.6675 28.2139C15.5178 27.9459 15.6202 27.6071 15.8882 27.4573C16.1561 27.3076 16.495 27.41 16.6447 27.678L20.1439 32.115C20.5379 32.8321 21.2866 33.2814 22.1062 33.2814H30.7674C31.9969 33.2814 33.0056 32.2805 33.0056 31.0432V3.3573C33.0056 2.12786 32.0048 1.1191 30.7674 1.1191H17.4644V5.72159C17.4644 6.01318 17.3067 6.28114 17.0624 6.43088L9.43364 10.9703H24.6912L18.347 7.19533C18.0791 7.03771 17.9924 6.69095 18.15 6.43088C18.3076 6.16292 18.6544 6.07623 18.9145 6.23385L26.1334 10.529C26.4644 10.726 26.6142 11.1043 26.5117 11.4747C26.4093 11.8451 26.0861 12.0894 25.7 12.0894H8.41699C8.03083 12.0894 7.70771 11.8451 7.60525 11.4747C7.5028 11.1043 7.66042 10.726 7.98354 10.529L16.3453 5.55609V0.827502C16.3453 0.370406 16.7157 0 17.1728 0H30.7674C32.6195 0 34.1247 1.50527 34.1247 3.3573V31.051C34.1247 32.9031 32.6195 34.4083 30.7674 34.4083L30.7753 34.4005Z" fill="#776156"/>
<path d="M33.1475 22.3032H22.2717C21.9644 22.3032 21.7122 22.051 21.7122 21.7436C21.7122 21.4363 21.9644 21.1841 22.2717 21.1841H33.1475C33.4548 21.1841 33.707 21.4363 33.707 21.7436C33.707 22.051 33.4548 22.3032 33.1475 22.3032Z" fill="#776156"/>
<path d="M33.1001 28.2376H22.2243C21.917 28.2376 21.6648 27.9854 21.6648 27.6781C21.6648 27.3707 21.917 27.1185 22.2243 27.1185H33.1001C33.4074 27.1185 33.6596 27.3707 33.6596 27.6781C33.6596 27.9854 33.4074 28.2376 33.1001 28.2376Z" fill="#776156"/>
<path d="M28.4111 25.2744H26.9137C26.756 25.2744 26.6221 25.0222 26.6221 24.7148C26.6221 24.4075 26.7482 24.1553 26.9137 24.1553H28.4111C28.5687 24.1553 28.7026 24.4075 28.7026 24.7148C28.7026 25.0222 28.5766 25.2744 28.4111 25.2744Z" fill="#F15632"/>
<path d="M25.7473 15.1235H24.6282V21.3259H25.7473V15.1235Z" fill="#776156"/>
<path d="M27.5756 15.1235H26.4565V21.3259H27.5756V15.1235Z" fill="#776156"/>
<path d="M28.6735 15.2684L27.698 15.8168L30.7178 21.1892L31.6933 20.6408L28.6735 15.2684Z" fill="#776156"/>
</g>
<defs>
<clipPath id="clip0_3_19">
<rect width="107" height="34.4005" fill="white"/>
</clipPath>
</defs>
</svg>
